<svg xmlns="http://www.w3.org/2000/svg" viewBox="0 0 230 64" width="230" height="64"><g fill="none" stroke="#16181D" stroke-linecap="round" stroke-width="4.5">
<path d="M9 3V61M55 3V61M3 9H61M3 55H61"/>
<path d="M16 19H48M16 28H48M16 37H48M16 46H26"/>
</g>
<path d="M30 46C35 41.2 42 41.2 49 46C42 50.8 35 50.8 30 46Z" fill="#16181D"/><g transform="translate(84 -1.64) scale(1.18)"><g fill="none" stroke="#16181D" stroke-width="4.4" stroke-linecap="round" stroke-linejoin="round">
<path d="M3 20L10.5 47L17.5 25L24.5 47L32 20"/>
<path d="M41 34H67A13 13 0 1 0 63.2 43.2"/>
<path d="M80 48V19Q80 8 91 8"/>
<path d="M104 10V39Q104 48 113 48"/>
<path d="M72 20H116"/>
</g></g></svg>
